<svg id="Group_8" data-name="Group 8" xmlns="http://www.w3.org/2000/svg" width="32.756" height="33.719" viewBox="0 0 32.756 33.719">
  <path id="Path_11" data-name="Path 11" d="M32.378,967.362a1.647,1.647,0,0,0-.888.3L16.557,979.224A1.468,1.468,0,0,0,16,980.368v19.268a1.5,1.5,0,0,0,1.445,1.445H27.561a1.5,1.5,0,0,0,1.445-1.445v-6.744a3.372,3.372,0,1,1,6.744,0v6.744a1.5,1.5,0,0,0,1.445,1.445H47.31a1.5,1.5,0,0,0,1.445-1.445V980.368a1.472,1.472,0,0,0-.557-1.144L33.266,967.663A1.251,1.251,0,0,0,32.378,967.362Zm0,3.266L45.865,981.06v17.13H38.64v-5.3a6.262,6.262,0,1,0-12.524,0v5.3H18.89V981.06Z" transform="translate(-16 -967.362)" fill="#f3f3f3"/>
</svg>
