<svg xmlns="http://www.w3.org/2000/svg" width="448" height="448" viewBox="0 0 448 448">
  <g id="Layer_2" data-name="Layer 2" transform="translate(0 -0.215)">
    <g id="edit-2" transform="translate(0 0.215)">
      <rect id="Rectangle_309" data-name="Rectangle 309" width="448" height="448" fill="#42497c" opacity="0"/>
      <path id="Path_918" data-name="Path 918" d="M284.5,20H22.7a18.7,18.7,0,0,0,0,37.4H284.5a18.7,18.7,0,1,0,0-37.4Z" transform="translate(70.799 353.691)" fill="#42497c"/>
      <path id="Path_919" data-name="Path 919" d="M22.774,300.173h1.683l77.978-7.106a37.4,37.4,0,0,0,22.627-10.659l168.3-168.3a35.9,35.9,0,0,0-1.309-50.676L240.813,12.2a37.4,37.4,0,0,0-49.741-1.309l-168.3,168.3a37.4,37.4,0,0,0-10.659,22.627L4.074,279.79a18.653,18.653,0,0,0,18.7,20.383ZM214.82,38.377l51.05,51.05-37.4,36.464L178.356,75.777ZM48.393,204.991,153.672,100.46l50.489,50.489L99.443,255.668l-56.1,5.236Z" transform="translate(70.724 36.119)" fill="#42497c"/>
    </g>
  </g>
</svg>
