<svg xmlns="http://www.w3.org/2000/svg" width="540.823" height="323" viewBox="0 0 540.823 323">
  <g id="Group_32" data-name="Group 32" transform="translate(1187.694 1269)">
    <g id="Group_31" data-name="Group 31">
      <g id="Group_30" data-name="Group 30">
        <g id="Group_29" data-name="Group 29" transform="translate(-1333.148 -1355.654)">
          <path id="Path_22" data-name="Path 22" d="M260.831,118.435c18.582-10.561,46.179-15.47,65.4-3.577,9.028,5.583,12.682,15.965,14.988,25.8a135.931,135.931,0,0,1,3.329,35.93c-.9,25.023-9.387,47.852-23.149,68.59-13.451,20.268-29.9,38.525-47.238,55.519a464.372,464.372,0,0,1-65.32,53.713c-11.329,7.632-.657,26.133,10.774,18.428C265.591,341.864,309,302.319,339.828,255.956c16.183-24.336,25.459-51.942,26.12-81.242.581-25.723-3.236-59.288-25.454-75.872-25.437-18.983-64.471-13.592-90.437,1.165-11.94,6.783-1.2,25.232,10.774,18.428Z" transform="translate(191.413 0)" fill="#42497c"/>
          <path id="Path_23" data-name="Path 23" d="M182.048,160.912c22.778,26.462,49.146,51.771,78.544,70.822,18.543,12.016,40.625,19.346,61.551,26.163C372.45,274.277,426.8,284.6,479.663,277.06c25.945-3.7,51.771-12.815,72.773-28.767,12.525-9.515,25.181-23.077,24.11-40.036-.9-14.164-10.1-25.732-20.814-34.278-12.524-9.993-26.726-17.382-41.4-23.691-22.351-9.617-45.9-17.86-69.678-23.2-.44-.1-.879-.213-1.319-.316-13.361-3.121-19.064,17.455-5.673,20.579a431.233,431.233,0,0,1,53.871,16.588q5.3,1.991,10.522,4.149c.76.312,2.42,1.02.692.282.811.346,1.618.692,2.425,1.046q2.824,1.229,5.613,2.519a200.816,200.816,0,0,1,19.683,10.335c3.078,1.861,6.07,3.85,9,5.942.312.226,2.245,1.669,1.063.768s.683.546.982.794c1.3,1.076,2.591,2.173,3.833,3.325,1.016.943,2.006,1.917,2.958,2.924.538.572,1.054,1.157,1.579,1.742.3.337,1.874,2.288.815.935-.9-1.148,1.255,1.823,1.682,2.518.683,1.1,1.174,2.326,1.857,3.419.307.491-.721-2.331-.179-.41.179.64.444,1.259.632,1.9.154.542.243,1.11.414,1.643.641,2.045.021-.444.021-.346-.009,1.2.055,2.459.1,3.654.064,1.648-.167.721.145-.551-.188.76-.277,1.545-.469,2.309-.286,1.123-1.605,4.269-.342,1.549a39.722,39.722,0,0,1-2.207,4.171c-.5.82-3.018,4.064-1.362,2.083-1.246,1.49-2.531,2.937-3.906,4.307-1.417,1.422-2.907,2.766-4.444,4.064-.371.316-2.143,1.759-1.652,1.374.307-.243-1.742,1.289-2.326,1.712a129.719,129.719,0,0,1-14.676,9.041,141.366,141.366,0,0,1-35.392,12.682c-48.454,10.877-100.375,1.571-147.245-12.3a478.841,478.841,0,0,1-50.465-17.762c-14.189-6.015-27.277-15.423-39.456-25.245a411.134,411.134,0,0,1-37.5-34.261q-8.676-8.958-16.789-18.428c-3.761-4.371-11.231-3.863-15.09,0-4.333,4.333-3.774,10.71,0,15.09Z" transform="translate(109.667 130.082)" fill="#42497c"/>
          <path id="Path_24" data-name="Path 24" d="M283.21,100c-25.941-14.744-65.013-20.148-90.437-1.165-12.456,9.306-18.684,23.713-21.839,38.568a158.233,158.233,0,0,0-2.92,48.561A150.089,150.089,0,0,0,184.1,240.325c6.309,12.2,24.737,1.422,18.432-10.774-15.107-29.228-18.842-66.323-7.982-97.677,10.966-31.652,54.383-26.8,77.887-13.442,11.961,6.8,22.727-11.637,10.77-18.428Z" transform="translate(71.37 0.003)" fill="#42497c"/>
          <path id="Path_25" data-name="Path 25" d="M219.847,274.154c-.094,0-.192,0-.286,0C159.145,272.156,147.991,244.1,146,232.137c-5.131-30.841,26.167-65.61,76.1-84.551,46.474-17.63,112.942-22.893,160.512-24.2,27.8-.764,51.43-.286,66.353.252,29.621,1.063,30.419,1.754,32.792,3.808l3.855,3.334-1.1,4.986a8.535,8.535,0,0,1-10.177,6.488c-.124-.026-.248-.055-.363-.085-13.331-1.789-164.017-9.643-245.818,21.386-34.773,13.19-69.486,40.728-65.316,65.781,2.706,16.285,24.118,26.658,57.278,27.751a8.538,8.538,0,0,1-.277,17.071Z" transform="translate(0 118.755)" fill="#42497c"/>
          <circle id="Ellipse_27" data-name="Ellipse 27" cx="23.939" cy="23.939" r="23.939" transform="translate(334.266 87.696)" fill="#42497c"/>
          <circle id="Ellipse_28" data-name="Ellipse 28" cx="23.939" cy="23.939" r="23.939" transform="translate(413.471 87.696)" fill="#42497c"/>
        </g>
      </g>
    </g>
  </g>
</svg>
