<svg id="Group_11" data-name="Group 11" xmlns="http://www.w3.org/2000/svg" width="27.588" height="33.719" viewBox="0 0 27.588 33.719">
  <g id="Group_10" data-name="Group 10" transform="translate(0 0)">
    <path id="Path_15" data-name="Path 15" d="M59.588,60.186a1.533,1.533,0,0,1-3.065,0,10.729,10.729,0,1,0-21.458,0,1.533,1.533,0,0,1-3.065,0,13.794,13.794,0,1,1,27.588,0ZM45.794,44.859a8.43,8.43,0,1,1,8.43-8.43A8.43,8.43,0,0,1,45.794,44.859Zm0-3.065A5.364,5.364,0,1,0,40.43,36.43,5.364,5.364,0,0,0,45.794,41.794Z" transform="translate(-32 -28)" fill="#fff"/>
  </g>
</svg>
