<svg id="Group_9" data-name="Group 9" xmlns="http://www.w3.org/2000/svg" width="30.166" height="33.183" viewBox="0 0 30.166 33.183">
  <path id="Path_12" data-name="Path 12" d="M18.508,38.183a1.508,1.508,0,1,1,0-3.017H26.05a1.508,1.508,0,0,0,1.508-1.508V9.525A1.508,1.508,0,0,0,26.05,8.017H18.508a1.508,1.508,0,1,1,0-3.017H26.05a4.525,4.525,0,0,1,4.525,4.525V33.658a4.525,4.525,0,0,1-4.525,4.525Z" transform="translate(-0.408 -5)" fill="#f3f3f3" fill-rule="evenodd"/>
  <path id="Path_13" data-name="Path 13" d="M19.409,18.542l-4.967-4.967a1.508,1.508,0,1,1,2.133-2.133l6.033,6.033a1.508,1.508,0,0,1,0,2.133l-6.033,6.033a1.508,1.508,0,1,1-2.133-2.133Z" transform="translate(-1.933 -1.95)" fill="#f3f3f3" fill-rule="evenodd"/>
  <path id="Path_14" data-name="Path 14" d="M25.608,15a1.508,1.508,0,1,1,0,3.017H7.508a1.508,1.508,0,1,1,0-3.017Z" transform="translate(-6 0.083)" fill="#f3f3f3" fill-rule="evenodd"/>
</svg>
