<svg xmlns="http://www.w3.org/2000/svg" width="86.693" height="51.777" viewBox="0 0 86.693 51.777">
  <g id="Group_28" data-name="Group 28" transform="translate(-145.454 -86.654)">
    <path id="Path_22" data-name="Path 22" d="M213.121,91.748c2.979-1.693,7.4-2.48,10.484-.573a6.223,6.223,0,0,1,2.4,4.136,21.789,21.789,0,0,1,.534,5.76,21.062,21.062,0,0,1-3.711,10.995,56.042,56.042,0,0,1-7.572,8.9,74.439,74.439,0,0,1-10.471,8.61c-1.816,1.223-.105,4.189,1.727,2.954a70.232,70.232,0,0,0,19.27-18.737,24.369,24.369,0,0,0,4.187-13.023c.093-4.123-.519-9.5-4.08-12.162-4.078-3.043-10.335-2.179-14.5.187-1.914,1.087-.192,4.045,1.727,2.954Z" transform="translate(-18.489 0)" fill="#f7f7ff"/>
    <path id="Path_23" data-name="Path 23" d="M179.492,131.974a60.44,60.44,0,0,0,12.591,11.353,41.979,41.979,0,0,0,9.867,4.194c8.064,2.626,16.776,4.281,25.25,3.072a25.164,25.164,0,0,0,11.665-4.611c2.008-1.525,4.037-3.7,3.865-6.418a7.937,7.937,0,0,0-3.337-5.495,28.638,28.638,0,0,0-6.636-3.8,64.035,64.035,0,0,0-11.169-3.719l-.211-.051c-2.142-.5-3.056,2.8-.909,3.3a69.128,69.128,0,0,1,8.636,2.659q.849.319,1.687.665c.122.05.388.164.111.045.13.055.259.111.389.168q.453.2.9.4a32.193,32.193,0,0,1,3.155,1.657c.493.3.973.617,1.442.953.05.036.36.268.17.123s.109.088.157.127c.209.172.415.348.614.533.163.151.322.307.474.469.086.092.169.185.253.279.048.054.3.367.131.15-.144-.184.2.292.27.4.109.177.188.373.3.548.049.079-.116-.374-.029-.066.029.1.071.2.1.3.025.087.039.178.066.263.1.328,0-.071,0-.055,0,.192.009.394.016.586.01.264-.027.116.023-.088-.03.122-.044.248-.075.37-.046.18-.257.684-.055.248a6.366,6.366,0,0,1-.354.669c-.081.131-.484.651-.218.334-.2.239-.406.471-.626.69s-.466.443-.712.651c-.06.051-.344.282-.265.22.049-.039-.279.207-.373.274a20.8,20.8,0,0,1-2.353,1.449,22.662,22.662,0,0,1-5.673,2.033c-7.767,1.743-16.09.252-23.6-1.971a76.756,76.756,0,0,1-8.089-2.847A27.45,27.45,0,0,1,190.613,138a65.9,65.9,0,0,1-6.011-5.492q-1.391-1.436-2.691-2.954a1.725,1.725,0,0,0-2.419,0,1.745,1.745,0,0,0,0,2.419Z" transform="translate(-10.593 -12.565)" fill="#f7f7ff"/>
    <path id="Path_24" data-name="Path 24" d="M185.87,88.795c-4.158-2.363-10.421-3.23-14.5-.187a10.019,10.019,0,0,0-3.5,6.182,25.365,25.365,0,0,0-.468,7.784,24.059,24.059,0,0,0,2.579,8.714c1.011,1.956,3.965.228,2.955-1.727a20.481,20.481,0,0,1-1.28-15.658c1.758-5.074,8.718-4.3,12.485-2.155,1.917,1.089,3.643-1.865,1.726-2.954Z" transform="translate(-6.894 0)" fill="#f7f7ff"/>
    <path id="Path_25" data-name="Path 25" d="M157.379,147.217h-.046c-9.684-.32-11.472-4.817-11.791-6.735-.822-4.944,4.195-10.517,12.2-13.553,7.45-2.826,18.1-3.67,25.73-3.88,4.457-.122,8.244-.046,10.636.04,4.748.17,4.876.281,5.257.61l.618.534-.176.8a1.368,1.368,0,0,1-1.631,1.04l-.058-.014c-2.137-.287-26.292-1.546-39.4,3.428-5.574,2.114-11.139,6.529-10.47,10.545.434,2.61,3.866,4.273,9.182,4.448a1.369,1.369,0,0,1-.044,2.736Z" transform="translate(0 -11.471)" fill="#f7f7ff"/>
    <circle id="Ellipse_27" data-name="Ellipse 27" cx="3.837" cy="3.837" r="3.837" transform="translate(175.72 86.821)" fill="#f7f7ff"/>
    <circle id="Ellipse_28" data-name="Ellipse 28" cx="3.837" cy="3.837" r="3.837" transform="translate(188.417 86.821)" fill="#f7f7ff"/>
  </g>
</svg>
